<svg xmlns="http://www.w3.org/2000/svg" xmlns:xlink="http://www.w3.org/1999/xlink" width="500" zoomAndPan="magnify" viewBox="0 0 375 374.999991" height="500" preserveAspectRatio="xMidYMid meet" version="1.0"><defs><clipPath id="8d66ffad39"><path d="M 183 0 L 201 0 L 201 7 L 183 7 Z M 183 0 " clip-rule="nonzero"/></clipPath><clipPath id="7df3f5927c"><path d="M 183.050781 -2.363281 L 191.371094 -10.679688 L 200.078125 -1.972656 L 191.757812 6.34375 Z M 183.050781 -2.363281 " clip-rule="nonzero"/></clipPath><clipPath id="d161c11ced"><path d="M 200.054688 -1.992188 L 191.738281 6.324219 L 183.050781 -2.363281 Z M 200.054688 -1.992188 " clip-rule="nonzero"/></clipPath><clipPath id="7623f604ce"><path d="M 0 0 L 17.160156 0 L 17.160156 6.480469 L 0 6.480469 Z M 0 0 " clip-rule="nonzero"/></clipPath><clipPath id="778aa59568"><path d="M 0.0507812 -2.363281 L 8.371094 -10.679688 L 17.078125 -1.972656 L 8.757812 6.34375 Z M 0.0507812 -2.363281 " clip-rule="nonzero"/></clipPath><clipPath id="8cc838c10d"><path d="M 17.054688 -1.992188 L 8.738281 6.324219 L 0.0507812 -2.363281 Z M 17.054688 -1.992188 " clip-rule="nonzero"/></clipPath><clipPath id="f4021c5778"><rect x="0" width="18" y="0" height="7"/></clipPath><clipPath id="85ec70b23c"><path d="M 174 368 L 192 368 L 192 375 L 174 375 Z M 174 368 " clip-rule="nonzero"/></clipPath><clipPath id="d1977235db"><path d="M 191.546875 377.597656 L 183.226562 385.914062 L 174.519531 377.207031 L 182.835938 368.890625 Z M 191.546875 377.597656 " clip-rule="nonzero"/></clipPath><clipPath id="dc52c8e5b3"><path d="M 174.539062 377.230469 L 182.859375 368.910156 L 191.546875 377.597656 Z M 174.539062 377.230469 " clip-rule="nonzero"/></clipPath><clipPath id="aa4b344de9"><path d="M 0.480469 0.878906 L 17.761719 0.878906 L 17.761719 7 L 0.480469 7 Z M 0.480469 0.878906 " clip-rule="nonzero"/></clipPath><clipPath id="e291da39af"><path d="M 17.546875 9.597656 L 9.226562 17.914062 L 0.519531 9.207031 L 8.835938 0.890625 Z M 17.546875 9.597656 " clip-rule="nonzero"/></clipPath><clipPath id="a0392e79c9"><path d="M 0.539062 9.230469 L 8.859375 0.910156 L 17.546875 9.597656 Z M 0.539062 9.230469 " clip-rule="nonzero"/></clipPath><clipPath id="1670d16c30"><rect x="0" width="18" y="0" height="7"/></clipPath></defs><rect x="-37.5" width="450" fill="#ffffff" y="-37.499999" height="449.999989" fill-opacity="1"/><rect x="-37.5" width="450" fill="#000000" y="-37.499999" height="449.999989" fill-opacity="1"/><path stroke-linecap="butt" transform="matrix(0.75, 0, 0, 0.75, 0.0000045, 179.999988)" fill="none" stroke-linejoin="miter" d="M -0.000006 10.000016 L 500.000027 10.000016 " stroke="#ffffff" stroke-width="20" stroke-opacity="1" stroke-miterlimit="4"/><path stroke-linecap="butt" transform="matrix(0.53033, -0.53033, 0.53033, 0.53033, -5.304012, 182.194968)" fill="none" stroke-linejoin="miter" d="M -0.000961903 10.002303 L 353.55245 10.002303 " stroke="#ffffff" stroke-width="20" stroke-opacity="1" stroke-miterlimit="4"/><path stroke-linecap="butt" transform="matrix(0.53033, -0.53033, 0.53033, 0.53033, 182.195969, 369.694956)" fill="none" stroke-linejoin="miter" d="M -0.000954889 10.002333 L 353.552458 10.002333 " stroke="#ffffff" stroke-width="20" stroke-opacity="1" stroke-miterlimit="4"/><g clip-path="url(#8d66ffad39)"><g clip-path="url(#7df3f5927c)"><g clip-path="url(#d161c11ced)"><g transform="matrix(1, 0, 0, 1, 183, 0)"><g clip-path="url(#f4021c5778)"><g clip-path="url(#7623f604ce)"><g clip-path="url(#778aa59568)"><g clip-path="url(#8cc838c10d)"><path fill="#ffffff" d="M 0.0507812 -2.363281 L 8.371094 -10.679688 L 17.042969 -2.003906 L 8.726562 6.3125 Z M 0.0507812 -2.363281 " fill-opacity="1" fill-rule="nonzero"/></g></g></g></g></g></g></g></g><g clip-path="url(#85ec70b23c)"><g clip-path="url(#d1977235db)"><g clip-path="url(#dc52c8e5b3)"><g transform="matrix(1, 0, 0, 1, 174, 368)"><g clip-path="url(#1670d16c30)"><g clip-path="url(#aa4b344de9)"><g clip-path="url(#e291da39af)"><g clip-path="url(#a0392e79c9)"><path fill="#ffffff" d="M 17.546875 9.597656 L 9.226562 17.914062 L 0.554688 9.242188 L 8.871094 0.921875 Z M 17.546875 9.597656 " fill-opacity="1" fill-rule="nonzero"/></g></g></g></g></g></g></g></g></svg>